<svg id="Layer_1" data-name="Layer 1" xmlns="http://www.w3.org/2000/svg" viewBox="0 0 1997.82 383.71"><defs><style>.cls-1{fill:#0e213e;}.cls-2{fill:#01afe7;}</style></defs><title>Flat-Blue</title><g id="_Group_" data-name=" Group "><path id="_Compound_Path_" data-name=" Compound Path " class="cls-1" d="M537.47,294.78l-16,40.31h-64l89.3-232h65.85l87.39,232H635.64l-15.09-40.31H537.47v0Zm42.16-120H579L554.1,248.59h50.15Z" transform="translate(-14.18 -16.6)"/><path id="_Compound_Path_2" data-name=" Compound Path 2" class="cls-1" d="M718.72,103.05h85.54c64.63,0,117.86,50.76,117.86,116s-53.54,116-117.86,116H718.72v-232ZM779,284h13.55c36,0,66.78-19.69,66.78-64.92,0-41.55-27.39-64.92-66.17-64.92H779V284h0Z" transform="translate(-14.18 -16.6)"/><path id="_Compound_Path_3" data-name=" Compound Path 3" class="cls-1" d="M1042.43,335.09H982.11v-181H932.28V103.05h160v51.08h-49.86v181Z" transform="translate(-14.18 -16.6)"/><path id="_Compound_Path_4" data-name=" Compound Path 4" class="cls-1" d="M1359.08,214.77c0,75.09-53.86,128-128.31,128s-128.31-52.93-128.31-128c0-70.16,61.53-119.39,128.31-119.39S1359.08,144.61,1359.08,214.77Zm-193.87.32c0,40,29.54,69.24,65.53,69.24s65.53-29.22,65.53-69.24c0-32-29.54-61.24-65.53-61.24s-65.53,29.22-65.53,61.22v0Z" transform="translate(-14.18 -16.6)"/><path id="_Compound_Path_5" data-name=" Compound Path 5" class="cls-1" d="M1387.08,103.05h60.26l110.47,141.89h0.61V103.05h60.35v232h-60.29L1448,192.91h-0.67V335.06h-60.26v-232Z" transform="translate(-14.18 -16.6)"/><path id="_Compound_Path_6" data-name=" Compound Path 6" class="cls-1" d="M1718.49,335.09h-60.32v-232h60.32v232Z" transform="translate(-14.18 -16.6)"/><path id="_Compound_Path_7" data-name=" Compound Path 7" class="cls-1" d="M1956.63,349.53l-18.45-21.83c-17.84,10.77-38.77,15.09-63.71,15.09-74.48,0-128.31-52.93-128.31-128,0-70.16,61.53-119.39,128.31-119.39,72.39,0,128.31,48.94,128.31,124.31,0,30.78-10.45,57.54-29.85,81.54l39.06,39.7Zm-27.39-95.38A59.91,59.91,0,0,0,1940,220c0-34.75-29-66.17-65.24-66.17s-65.85,29.25-65.85,61.24c0,40,29.85,69.24,65.85,69.24a55.4,55.4,0,0,0,18.47-3.07l-37.24-37,56.93-7.07Z" transform="translate(-14.18 -16.6)"/></g><circle id="_Path_" data-name=" Path " class="cls-2" cx="64.65" cy="319.06" r="64.65"/><g id="_Group_2" data-name=" Group 2"><path id="_Path_2" data-name=" Path 2" class="cls-1" d="M275.15,113.05a299.9,299.9,0,0,1-24.32,93.64q-4.86,10.94-10.59,21.45L202.61,143.4l-11-24.78L180.8,143.1l-9.19,20.75-20,45.23-20,45.17-5.78,13a82.59,82.59,0,0,0-83.92-5.78l6.38-14.35,20.13-45.26,20-45.17h0l20-45.17L120.64,84,127,69.77l4.35-8.46,1.22-2.22,0.3-.78,6.92-13.51h0c1-1.46,2-2.7,3.08-4.19a62.28,62.28,0,0,1,5.4-5.89,56.74,56.74,0,0,1,4.43-3.92,63.5,63.5,0,0,1,91.29,11.81h0l11.1,25.07h0Z" transform="translate(-14.18 -16.6)"/><path id="_Path_3" data-name=" Path 3" class="cls-1" d="M368.77,335.87A63.68,63.68,0,0,1,333.29,393a61.28,61.28,0,0,1-17.53,5.73l-45.2-102-3.43,3.89-5.19,5.62-0.51.54-1,1.08L257,311.42l-0.27.3c-1.38,1.46-2.7,2.86-4.24,4.27l-3.11,3.11-3.19,3.05L243.08,325h0l-1.16,1h0a293.84,293.84,0,0,1-28.37,22.48,302.22,302.22,0,0,1-64.84,34.42l-2.38.89a82.08,82.08,0,0,0,15.43-43.23c2.13-1.38,4.21-2.7,6.3-4.27a304.64,304.64,0,0,0,29.56-23.69A298.85,298.85,0,0,0,225,284.11,295,295,0,0,0,249.84,250q6.08-9.59,11.35-19.64a297.58,297.58,0,0,0,29.18-83l29.72,67.3,38.53,86.7,8.11,18.18A63.82,63.82,0,0,1,368.77,335.87Z" transform="translate(-14.18 -16.6)"/></g></svg>